PathFileType	4	(X/Y/Z)	C:\Users\86182\Documents\cortex\Trimmed_M4_L15.trc
DataRate	CameraRate	NumFrames	NumMarkers	Units	OrigDataRate	OrigDataStartFrame	OrigNumFrames
100.00	100.00	       126	2	mm	100.00	361	       901
Frame#	Time	gripper			box			
		X1	Y1	Z1	X2	Y2	Z2	

361	3.600	274.49673	150.39809	292.45544	277.45996	147.25133	157.21878	
362	3.610	274.49704	150.39711	292.46082	277.46240	147.24890	157.22733	
363	3.620	274.49710	150.39612	292.46564	277.46439	147.24702	157.23410	
364	3.630	274.49655	150.39520	292.46863	277.46506	147.24620	157.23697	
365	3.640	274.49542	150.39453	292.46918	277.46417	147.24663	157.23523	
366	3.650	274.49402	150.39420	292.46735	277.46222	147.24806	157.22992	
367	3.660	274.49258	150.39421	292.46387	277.45990	147.24994	157.22318	
368	3.670	274.49139	150.39441	292.46011	277.45801	147.25156	157.21735	
369	3.680	274.49072	150.39467	292.45734	277.45715	147.25241	157.21408	
370	3.690	274.49094	150.39496	292.45645	277.45764	147.25230	157.21428	
371	3.700	274.49225	150.39536	292.45770	277.45966	147.25121	157.21826	
372	3.710	274.49457	150.39586	292.46078	277.46295	147.24936	157.22552	
373	3.720	274.49741	150.39648	292.46472	277.46692	147.24718	157.23456	
374	3.730	274.50021	150.39719	292.46811	277.47055	147.24524	157.24304	
375	3.740	274.50220	150.39784	292.46967	277.47275	147.24409	157.24860	
376	3.750	274.50259	150.39830	292.46854	277.47272	147.24414	157.24957	
377	3.760	274.50122	150.39842	292.46466	277.47018	147.24556	157.24539	
378	3.770	274.49841	150.39827	292.45868	277.46545	147.24828	157.23682	
379	3.780	274.49503	150.39799	292.45184	277.45932	147.25189	157.22595	
380	3.790	274.49191	150.39774	292.44568	277.45276	147.25574	157.21521	
381	3.800	274.48959	150.39752	292.44119	277.44678	147.25909	157.20685	
382	3.810	274.48816	150.39726	292.43900	277.44238	147.26134	157.20213	
383	3.820	274.48740	150.39684	292.43918	277.44052	147.26205	157.20126	
384	3.830	274.48697	150.39613	292.44147	277.44159	147.26122	157.20354	
385	3.840	274.48676	150.39523	292.44519	277.44492	147.25919	157.20764	
386	3.850	274.48660	150.39427	292.44934	277.44916	147.25668	157.21201	
387	3.860	274.48633	150.39337	292.45294	277.45306	147.25439	157.21515	
388	3.870	274.48590	150.39265	292.45529	277.45584	147.25276	157.21616	
389	3.880	274.48541	150.39223	292.45612	277.45737	147.25189	157.21497	
390	3.890	274.48502	150.39217	292.45551	277.45786	147.25162	157.21240	
391	3.900	274.48499	150.39247	292.45398	277.45776	147.25168	157.20953	
392	3.910	274.48550	150.39314	292.45209	277.45740	147.25183	157.20743	
393	3.920	274.48679	150.39415	292.45032	277.45706	147.25192	157.20663	
394	3.930	274.48880	150.39546	292.44897	277.45685	147.25183	157.20728	
395	3.940	274.49118	150.39685	292.44809	277.45682	147.25163	157.20882	
396	3.950	274.49316	150.39796	292.44757	277.45673	147.25163	157.21027	
397	3.960	274.49368	150.39830	292.44727	277.45618	147.25217	157.21042	
398	3.970	274.49207	150.39755	292.44696	277.45483	147.25331	157.20859	
399	3.980	274.48849	150.39584	292.44644	277.45251	147.25499	157.20496	
400	3.990	274.48383	150.39366	292.44568	277.44937	147.25688	157.20035	
401	4.000	274.47919	150.39145	292.44507	277.44583	147.25868	157.19595	
402	4.010	274.47528	150.38948	292.44501	277.44241	147.26003	157.19278	
403	4.020	274.47247	150.38789	292.44580	277.43988	147.26057	157.19150	
404	4.030	274.47089	150.38673	292.44745	277.43903	147.26006	157.19229	
405	4.040	274.47052	150.38606	292.44977	277.44025	147.25845	157.19513	
406	4.050	274.47137	150.38599	292.45224	277.44312	147.25610	157.19963	
407	4.060	274.47336	150.38652	292.45435	277.44681	147.25360	157.20499	
408	4.070	274.47589	150.38754	292.45560	277.45044	147.25153	157.21002	
409	4.080	274.47836	150.38879	292.45563	277.45343	147.25024	157.21371	
410	4.090	274.48013	150.38992	292.45450	277.45554	147.24985	157.21558	
411	4.100	274.48096	150.39073	292.45264	277.45679	147.25021	157.21573	
412	4.110	274.48093	150.39114	292.45062	277.45731	147.25102	157.21461	
413	4.120	274.48041	150.39120	292.44907	277.45737	147.25189	157.21307	
414	4.130	274.47986	150.39104	292.44855	277.45734	147.25249	157.21204	
415	4.140	274.47943	150.39066	292.44934	277.45743	147.25258	157.21210	
416	4.150	274.47906	150.39001	292.45148	277.45776	147.25221	157.21336	
417	4.160	274.47842	150.38905	292.45450	277.45828	147.25153	157.21545	
418	4.170	274.47729	150.38780	292.45773	277.45883	147.25073	157.21783	
419	4.180	274.47562	150.38641	292.46027	277.45917	147.25005	157.21967	
420	4.190	274.47345	150.38507	292.46143	277.45901	147.24968	157.22021	
421	4.200	274.47116	150.38400	292.46103	277.45825	147.24980	157.21906	
422	4.210	274.46927	150.38341	292.45929	277.45703	147.25046	157.21616	
423	4.220	274.46820	150.38344	292.45667	277.45547	147.25148	157.21204	
424	4.230	274.46823	150.38406	292.45374	277.45401	147.25255	157.20782	
425	4.240	274.46924	150.38510	292.45123	277.45303	147.25320	157.20497	
426	4.250	274.47098	150.38625	292.44998	277.45279	147.25308	157.20444	
427	4.260	274.47318	150.38727	292.45044	277.45325	147.25212	157.20624	
428	4.270	274.47571	150.38808	292.45270	277.45416	147.25050	157.20959	
429	4.280	274.47852	150.38870	292.45636	277.45529	147.24867	157.21350	
430	4.290	274.48148	150.38925	292.46085	277.45651	147.24695	157.21710	
431	4.300	274.48444	150.38977	292.46548	277.45770	147.24554	157.22006	
432	4.310	274.48697	150.39017	292.46954	277.45883	147.24448	157.22238	
433	4.320	274.48843	150.39032	292.47238	277.45975	147.24374	157.22418	
434	4.330	274.48849	150.39006	292.47375	277.46030	147.24336	157.22566	
435	4.340	274.48727	150.38940	292.47391	277.46045	147.24330	157.22717	
436	4.350	274.48523	150.38850	292.47327	277.46039	147.24344	157.22894	
437	4.360	274.48291	150.38757	292.47217	277.46036	147.24368	157.23090	
438	4.370	274.48062	150.38672	292.47067	277.46045	147.24405	157.23276	
439	4.380	274.47845	150.38600	292.46887	277.46069	147.24451	157.23410	
440	4.390	274.47653	150.38547	292.46695	277.46112	147.24506	157.23453	
441	4.400	274.47495	150.38507	292.46500	277.46176	147.24559	157.23358	
442	4.410	274.47360	150.38478	292.46313	277.46262	147.24600	157.23087	
443	4.420	274.47226	150.38449	292.46130	277.46378	147.24597	157.22638	
444	4.430	274.47058	150.38408	292.45929	277.46524	147.24519	157.22049	
445	4.440	274.46851	150.38351	292.45703	277.46710	147.24336	157.21393	
446	4.450	274.46622	150.38283	292.45480	277.46930	147.24052	157.20772	
447	4.460	274.46405	150.38210	292.45306	277.47165	147.23692	157.20294	
448	4.470	274.46207	150.38130	292.45209	277.47400	147.23279	157.20026	
449	4.480	274.46033	150.38046	292.45190	277.47650	147.22824	157.19971	
450	4.490	274.45889	150.37964	292.45233	277.47934	147.22337	157.20096	
451	4.500	274.45792	150.37900	292.45303	277.48270	147.21835	157.20340	
452	4.510	274.45749	150.37866	292.45367	277.48672	147.21344	157.20636	
453	4.520	274.45767	150.37869	292.45395	277.49078	147.20943	157.20901	
454	4.530	274.45834	150.37909	292.45367	277.49350	147.20758	157.21072	
455	4.540	274.45944	150.37982	292.45279	277.49387	147.20865	157.21100	
456	4.550	274.46082	150.38083	292.45142	277.49179	147.21239	157.20966	
457	4.560	274.46237	150.38196	292.44977	277.48764	147.21811	157.20673	
458	4.570	274.46384	150.38301	292.44824	277.48151	147.22543	157.20285	
459	4.580	274.46487	150.38376	292.44717	277.47375	147.23369	157.19888	
460	4.590	274.46521	150.38400	292.44690	277.46548	147.24159	157.19553	
461	4.600	274.46484	150.38371	292.44736	277.45804	147.24791	157.19336	
462	4.610	274.46420	150.38319	292.44830	277.45221	147.25203	157.19272	
463	4.620	274.46368	150.38269	292.44937	277.44830	147.25406	157.19373	
464	4.630	274.46344	150.38237	292.45038	277.44629	147.25458	157.19589	
465	4.640	274.46347	150.38222	292.45114	277.44583	147.25432	157.19836	
466	4.650	274.46362	150.38220	292.45163	277.44647	147.25385	157.20053	
467	4.660	274.46384	150.38228	292.45172	277.44763	147.25342	157.20200	
468	4.670	274.46405	150.38243	292.45151	277.44885	147.25313	157.20264	
469	4.680	274.46436	150.38269	292.45105	277.44977	147.25304	157.20245	
470	4.690	274.46490	150.38309	292.45050	277.45035	147.25310	157.20169	
471	4.700	274.46570	150.38356	292.45010	277.45071	147.25327	157.20084	
472	4.710	274.46643	150.38393	292.45020	277.45105	147.25359	157.20020	
473	4.720	274.46698	150.38408	292.45074	277.45145	147.25400	157.19977	
474	4.730	274.46738	150.38411	292.45154	277.45178	147.25446	157.19958	
475	4.740	274.46771	150.38414	292.45218	277.45209	147.25478	157.19958	
476	4.750	274.46805	150.38425	292.45239	277.45224	147.25493	157.19971	
477	4.760	274.46823	150.38438	292.45221	277.45215	147.25494	157.19958	
478	4.770	274.46811	150.38445	292.45166	277.45178	147.25493	157.19907	
479	4.780	274.46765	150.38432	292.45111	277.45123	147.25487	157.19824	
480	4.790	274.46695	150.38406	292.45065	277.45065	147.25465	157.19757	
481	4.800	274.46625	150.38377	292.45038	277.45016	147.25423	157.19733	
482	4.810	274.46585	150.38359	292.45026	277.44980	147.25363	157.19757	
483	4.820	274.46585	150.38361	292.45023	277.44952	147.25299	157.19800	
484	4.830	274.46625	150.38379	292.45029	277.44931	147.25241	157.19844	
485	4.840	274.46686	150.38408	292.45044	277.44922	147.25186	157.19907	
486	4.850	274.46744	150.38434	292.45053	277.44946	147.25128	157.20035	
